:SAMPLES-PER-SECOND 30
:FULLY-SPECIFIED
:DEGREES
709
root  -40.8236 33.9833 39.7935 -164.176 -10.542 -177.376
RightUpLeg  -23.1025 -20.3513 7.87774
RightLeg  23.0551 -1.41318 -0.500656
RightFoot  -10.7251 -0.00788954 0.468249
RightToes  -14.1301 -0.051209 -0.128034
Spine  3.78134 1.36366 -2.08055
Spine1  7.4242 3.02934 -3.5434
HEad  -33.3765 13.059 -9.2774
LeftShoulder1  -1.94126e-019 -3.10601e-018 -2.51263e-017
LeftArm  -25.4398 25.7594 -80.8723
LeftForeArm  16.3975 -24.3973 -4.31021
LeftHand  -0.436795 -0.841677 8.26504
RightShoulder  -4.96962e-017 0 -2.36833e-017
RightArm  -6.1812 -15.4064 80.0671
RightForeArm  48.6842 31.5902 4.19955
RightHand  -0.278307 -1.89205 -9.02879
LeftUpLeg  -40.8003 23.3165 -14.5902
LeftLeg  24.434 -1.63949 -0.624725
LeftFoot  3.18417 0.00145963 0.108997
LeftToes  -18.694 2.32378e-006 -5.43956e-008
710
root  -41.2306 33.8742 40.4655 -164.559 -10.3111 -176.094
RightUpLeg  -23.8835 -15.4673 7.67137
RightLeg  23.1856 -6.96867 -2.46297
RightFoot  -6.59636 0.0272987 1.0636
RightToes  -19.7628 -0.0801405 -0.174912
Spine  4.38852 1.93983 -1.16164
Spine1  8.66969 4.17267 -1.722
HEad  -33.7446 12.2928 -9.88653
LeftShoulder1  -1.94126e-019 -3.10601e-018 -2.51263e-017
LeftArm  -27.9214 26.5721 -82.9
LeftForeArm  18.4125 -23.9019 -4.11562
LeftHand  -0.463962 -1.56294 7.91664
RightShoulder  -4.96962e-017 0 -2.36833e-017
RightArm  -6.38499 -13.2072 78.7009
RightForeArm  49.2583 27.6966 3.3206
RightHand  -0.28943 -1.61768 -8.74851
LeftUpLeg  -45.0604 26.914 -15.8077
LeftLeg  29.9801 -6.1233 -3.02208
LeftFoot  3.93908 0.0141906 -0.251158
LeftToes  -34.5469 2.32378e-006 -5.43956e-008
711
root  -41.7584 33.8043 41.0755 -164.543 -9.80888 -176.391
RightUpLeg  -26.3559 -15.1417 6.39696
RightLeg  26.2223 -6.64447 -2.7541
RightFoot  -5.30377 0.0133829 0.880325
RightToes  -22.1202 -0.0935904 -0.193646
Spine  4.7919 2.29765 -0.771838
Spine1  9.47472 4.93231 -1.00358
HEad  -33.2869 11.4325 -9.64672
LeftShoulder1  -1.94126e-019 -3.10601e-018 -2.51263e-017
LeftArm  -29.6642 28.0061 -84.1241
LeftForeArm  18.4675 -25.3643 -4.42361
LeftHand  -0.472522 -1.32646 8.3247
RightShoulder  -4.96962e-017 0 -2.36833e-017
RightArm  -6.96723 -11.0585 77.8958
RightForeArm  50.2245 23.9367 2.52059
RightHand  -0.305298 -1.45278 -8.87242
LeftUpLeg  -49.7042 30.3884 -17.9331
LeftLeg  36.6275 -12.7243 -8.12924
LeftFoot  8.27198 0.154296 -1.97203
LeftToes  -54.8604 2.32378e-006 -5.43956e-008
712
root  -42.2806 33.7763 41.5492 -164.554 -9.18062 -176.594
RightUpLeg  -26.6476 -19.6757 6.22066
RightLeg  24.6589 -2.18866 -0.843704
RightFoot  -4.19563 -0.0075307 0.360201
RightToes  -24.3929 -0.107277 -0.21117
Spine  4.74576 2.4868 -0.557016
Spine1  9.36331 5.38153 -0.687606
HEad  -31.7666 10.7472 -8.51771
LeftShoulder1  -1.94126e-019 -3.10601e-018 -2.51263e-017
LeftArm  -30.0566 30.3709 -84.2866
LeftForeArm  16.8518 -27.5685 -4.99581
LeftHand  -0.436688 -0.326587 8.96186
RightShoulder  -4.96962e-017 0 -2.36833e-017
RightArm  -9.36035 -10.2955 77.9089
RightForeArm  52.4958 21.8635 2.03444
RightHand  -0.312518 -1.33269 -8.83121
LeftUpLeg  -53.0822 32.6981 -17.8641
LeftLeg  43.3834 -18.1182 -14.484
LeftFoot  11.7068 0.495548 -4.6695
LeftToes  -65.2158 2.32378e-006 -5.43956e-008
713
root  -42.8292 33.8344 41.9585 -164.392 -8.50534 -176.39
RightUpLeg  -26.5315 -21.1065 5.9978
RightLeg  22.392 -0.388557 -0.135073
RightFoot  -2.16904 -0.00705793 0.194136
RightToes  -26.7015 -0.121879 -0.228399
Spine  4.56854 2.53608 -0.414003
Spine1  9.00843 5.49345 -0.449678
HEad  -31.1197 10.4844 -7.64567
LeftShoulder1  -1.94126e-019 -3.10601e-018 -2.51263e-017
LeftArm  -31.9004 31.3649 -84.2609
LeftForeArm  18.1213 -27.9556 -5.01493
LeftHand  -0.336205 0.634029 8.20948
RightShoulder  -4.96962e-017 0 -2.36833e-017
RightArm  -13.222 -10.0739 78.2947
RightForeArm  53.3327 20.7865 1.8016
RightHand  -0.281605 -1.99732 -9.41078
LeftUpLeg  -53.2065 31.6716 -13.8258
LeftLeg  45.7007 -14.5145 -12.7323
LeftFoot  10.4778 0.323566 -3.36631
LeftToes  -60.8566 2.32378e-006 -5.43956e-008
714
root  -43.4569 33.9842 42.2942 -164.306 -7.20683 -176.486
RightUpLeg  -25.8251 -18.5743 4.42725
RightLeg  19.9954 -1.76374 -0.518021
RightFoot  0.413889 -0.00305911 0.172268
RightToes  -28.3832 -0.132947 -0.240573
Spine  4.3343 2.523 -0.553811
Spine1  8.52834 5.45661 -0.722952
HEad  -31.2117 10.7467 -7.25885
LeftShoulder1  -1.94126e-019 -3.10601e-018 -2.51263e-017
LeftArm  -32.4403 32.1857 -83.6879
LeftForeArm  17.6464 -27.4571 -4.92611
LeftHand  -0.384978 0.60416 9.35234
RightShoulder  -4.96962e-017 0 -2.36833e-017
RightArm  -16.6963 -10.5283 78.9138
RightForeArm  51.6481 20.8154 1.87485
RightHand  -0.270554 -2.4961 -10.5226
LeftUpLeg  -50.6257 29.6028 -8.28038
LeftLeg  44.9731 -7.02333 -6.13697
LeftFoot  8.09977 0.0888172 -1.09292
LeftToes  -55.1417 2.32378e-006 -5.43956e-008
715
root  -44.2117 34.1377 42.494 -164.744 -5.90094 -177.397
RightUpLeg  -24.2155 -16.9624 1.78846
RightLeg  17.3881 -2.50418 -0.611097
RightFoot  2.65332 0.0105735 0.0731093
RightToes  -30.154 -0.144983 -0.253035
Spine  4.12249 2.34299 -0.937928
Spine1  8.08137 5.08257 -1.46579
HEad  -30.9493 11.2418 -7.30774
LeftShoulder1  -1.94126e-019 -3.10601e-018 -2.51263e-017
LeftArm  -31.321 32.7079 -82.5624
LeftForeArm  17.1537 -27.7392 -5.01383
LeftHand  -0.195834 2.94503 8.83488
RightShoulder  -4.96962e-017 0 -2.36833e-017
RightArm  -17.756 -11.5772 79.2843
RightForeArm  48.2145 21.8119 2.20397
RightHand  -0.228214 -3.06146 -10.862
LeftUpLeg  -45.2824 25.5662 -2.34511
LeftLeg  42.8977 -0.290545 -0.244317
LeftFoot  5.403 0.000117245 0.159027
LeftToes  -44.0392 2.32378e-006 -5.43956e-008
